<svg width="40" height="40" viewBox="0 0 40 40" fill="none" xmlns="http://www.w3.org/2000/svg">
<path d="M20.0002 28.3333C20.4724 28.3333 20.8685 28.1733 21.1885 27.8533C21.5085 27.5333 21.6679 27.1378 21.6668 26.6666C21.6668 26.1944 21.5068 25.7983 21.1868 25.4783C20.8668 25.1583 20.4713 24.9989 20.0002 25C19.5279 25 19.1318 25.16 18.8118 25.48C18.4918 25.8 18.3324 26.1955 18.3335 26.6666C18.3335 27.1389 18.4935 27.535 18.8135 27.855C19.1335 28.175 19.5291 28.3344 20.0002 28.3333ZM20.0002 21.6666C20.4724 21.6666 20.8685 21.5066 21.1885 21.1866C21.5085 20.8666 21.6679 20.4711 21.6668 20V13.3333C21.6668 12.8611 21.5068 12.465 21.1868 12.145C20.8668 11.825 20.4713 11.6655 20.0002 11.6666C19.5279 11.6666 19.1318 11.8266 18.8118 12.1466C18.4918 12.4666 18.3324 12.8622 18.3335 13.3333V20C18.3335 20.4722 18.4935 20.8683 18.8135 21.1883C19.1335 21.5083 19.5291 21.6678 20.0002 21.6666ZM20.0002 36.6666C17.6946 36.6666 15.5279 36.2289 13.5002 35.3533C11.4724 34.4778 9.7085 33.2905 8.2085 31.7916C6.7085 30.2916 5.52127 28.5278 4.64683 26.5C3.77239 24.4722 3.33461 22.3055 3.3335 20C3.3335 17.6944 3.77127 15.5278 4.64683 13.5C5.52239 11.4722 6.70961 9.70831 8.2085 8.20831C9.7085 6.70831 11.4724 5.52109 13.5002 4.64665C15.5279 3.7722 17.6946 3.33442 20.0002 3.33331C22.3057 3.33331 24.4724 3.77109 26.5002 4.64665C28.5279 5.5222 30.2918 6.70942 31.7918 8.20831C33.2918 9.70831 34.4796 11.4722 35.3552 13.5C36.2307 15.5278 36.6679 17.6944 36.6668 20C36.6668 22.3055 36.2291 24.4722 35.3535 26.5C34.4779 28.5278 33.2907 30.2916 31.7918 31.7916C30.2918 33.2916 28.5279 34.4794 26.5002 35.355C24.4724 36.2305 22.3057 36.6678 20.0002 36.6666ZM20.0002 33.3333C23.7224 33.3333 26.8752 32.0416 29.4585 29.4583C32.0418 26.875 33.3335 23.7222 33.3335 20C33.3335 16.2778 32.0418 13.125 29.4585 10.5416C26.8752 7.95831 23.7224 6.66665 20.0002 6.66665C16.2779 6.66665 13.1252 7.95831 10.5418 10.5416C7.9585 13.125 6.66683 16.2778 6.66683 20C6.66683 23.7222 7.9585 26.875 10.5418 29.4583C13.1252 32.0416 16.2779 33.3333 20.0002 33.3333Z" fill="white"/>
</svg>
