<svg width="30" height="30" viewBox="0 0 30 30" fill="none" xmlns="http://www.w3.org/2000/svg">
<path d="M15.0072 27.1888C10.3722 27.1893 6.09811 24.5334 4.05108 20.3531C1.97967 16.1217 2.60686 10.8445 5.61249 7.2215C8.61483 3.60228 13.4959 2.02306 18.0466 3.19822C18.5476 3.32759 18.8491 3.839 18.7201 4.34056C18.5908 4.84212 18.0789 5.14306 17.5778 5.01415C13.7284 4.01994 9.59686 5.35587 7.05577 8.41916C4.51327 11.4843 3.98264 15.9492 5.7353 19.5295C7.48139 23.0957 11.3331 25.4188 15.2866 25.311C19.2395 25.2032 22.8269 22.799 24.4258 19.1863C25.3647 17.0648 25.5634 14.6624 24.9845 12.4213C24.8551 11.9202 25.1566 11.4088 25.6581 11.279C26.1583 11.1492 26.6706 11.451 26.8005 11.9526C27.4839 14.6006 27.25 17.4393 26.1409 19.9452C24.2509 24.2156 20.0101 27.0576 15.3381 27.1851C15.2275 27.1874 15.1169 27.1888 15.0072 27.1888Z" fill="#fff"/>
<path d="M14.9999 17.9249C14.7599 17.9249 14.5199 17.8335 14.3371 17.6502C13.971 17.2842 13.971 16.6907 14.3371 16.3246L25.5871 5.07462C25.9527 4.70853 26.5471 4.70853 26.9127 5.07462C27.2788 5.44071 27.2788 6.03415 26.9127 6.40024L15.6627 17.6502C15.4799 17.8331 15.2399 17.9249 14.9999 17.9249V17.9249Z" fill="#fff"/>
<path d="M14.9997 17.925C14.7597 17.925 14.5197 17.8336 14.3369 17.6503L10.3595 13.6729C9.99344 13.3069 9.99344 12.7134 10.3595 12.3473C10.7252 11.9812 11.3195 11.9812 11.6852 12.3473L15.6625 16.3247C16.0286 16.6908 16.0286 17.2842 15.6625 17.6503C15.4797 17.8331 15.2397 17.925 14.9997 17.925V17.925Z" fill="#fff"/>
</svg>
